<?xml version="1.0" encoding="UTF-8" standalone="no"?>
<!-- Created with Inkscape (http://www.inkscape.org/) -->

<svg
   xmlns:dc="http://purl.org/dc/elements/1.1/"
   xmlns:cc="http://creativecommons.org/ns#"
   xmlns:rdf="http://www.w3.org/1999/02/22-rdf-syntax-ns#"
   xmlns:svg="http://www.w3.org/2000/svg"
   xmlns="http://www.w3.org/2000/svg"
   xmlns:sodipodi="http://sodipodi.sourceforge.net/DTD/sodipodi-0.dtd"
   xmlns:inkscape="http://www.inkscape.org/namespaces/inkscape"
   width="5.2393274mm"
   height="5.8208327mm"
   viewBox="0 0 5.2393274 5.8208327"
   version="1.1"
   id="svg8"
   inkscape:version="0.92.3 (2405546, 2018-03-11)"
   sodipodi:docname="icon.svg">
  <defs
     id="defs2" />
  <sodipodi:namedview
     id="base"
     pagecolor="#ffffff"
     bordercolor="#666666"
     borderopacity="1.0"
     inkscape:pageopacity="0.0"
     inkscape:pageshadow="2"
     inkscape:zoom="1.979899"
     inkscape:cx="25.034367"
     inkscape:cy="-151.00345"
     inkscape:document-units="mm"
     inkscape:current-layer="layer1"
     showgrid="false"
     inkscape:window-width="1920"
     inkscape:window-height="1005"
     inkscape:window-x="-9"
     inkscape:window-y="-9"
     inkscape:window-maximized="1" />
  <metadata
     id="metadata5">
    <rdf:RDF>
      <cc:Work
         rdf:about="">
        <dc:format>image/svg+xml</dc:format>
        <dc:type
           rdf:resource="http://purl.org/dc/dcmitype/StillImage" />
        <dc:title />
      </cc:Work>
    </rdf:RDF>
  </metadata>
  <g
     inkscape:label="Calque 1"
     inkscape:groupmode="layer"
     id="layer1"
     transform="translate(-2.6720291,-2.2919514)">
    <g
       style="image-rendering:auto"
       transform="matrix(0.03114939,0,0,0.02930933,-218.99326,-205.83067)"
       id="g3975">
      <g
         id="Calque_2">
        <g
           id="g3860">
          <g
             style="opacity:0.25"
             id="g3826">
            <path
               inkscape:connector-curvature="0"
               d="m 7277.4,7289.2 v 0 c -2.1,0 -90.6,-0.2 -117,-0.2 -27.8,0 -29.5,0.2 -29.5,-8.8 0,-10.9 2.3,-11.1 29.5,-11.1 26.5,0 115,0 117.1,0 3.8,0 6.9,-4.1 6.9,-8.5 0,-2.4 -0.2,-150.3 -0.2,-150.7 -0.3,-4.3 -3.3,-8 -7.1,-8 h -152.7 c -3.8,0 -6.8,3.7 -7.2,8 0,0.1 0.1,0.5 0.1,0.6 V 7259 c 0,0 0,24.4 0,25.1 0,0 0,0 0,0 0,15.4 -0.2,15.4 43.2,15.4 26.4,0 115,0 117,0 3.8,0 6.9,-0.2 6.9,-2.7 0,-4.4 -3.2,-7.6 -7,-7.6 z"
               id="path3818" />
            <path
               inkscape:connector-curvature="0"
               d="m 7278.9,7275.6 h -131.3 c -0.9,0 -1.7,-0.7 -1.7,-1.2 0,-0.6 0.8,-1.2 1.7,-1.2 h 131.3 c 0.9,0 1.7,0.7 1.7,1.2 0,0.5 -0.8,1.2 -1.7,1.2 z"
               id="path3820" />
            <path
               inkscape:connector-curvature="0"
               d="m 7278.9,7280.9 h -140.1 c -0.9,0 -1.7,-0.4 -1.7,-1.2 0,-0.8 0.8,-1.2 1.7,-1.2 h 140.1 c 0.9,0 1.7,0.4 1.7,1.2 0,0.8 -0.8,1.2 -1.7,1.2 z"
               id="path3822" />
            <path
               inkscape:connector-curvature="0"
               d="m 7278.9,7286.3 h -131.3 c -0.9,0 -1.7,-0.7 -1.7,-1.2 0,-0.6 0.8,-1.2 1.7,-1.2 h 131.3 c 0.9,0 1.7,0.7 1.7,1.2 0,0.6 -0.8,1.2 -1.7,1.2 z"
               id="path3824" />
          </g>
          <g
             id="g3858">
            <g
               id="g3856">
              <linearGradient
                 id="SVGID_1_"
                 gradientUnits="userSpaceOnUse"
                 x1="7128.0391"
                 y1="7097.1943"
                 x2="7272.5112"
                 y2="7302.5483">
                <stop
                   offset="0"
                   style="stop-color:#007D96"
                   id="stop3828" />
                <stop
                   offset="1"
                   style="stop-color:#005564"
                   id="stop3830" />
              </linearGradient>
              <path
                 inkscape:connector-curvature="0"
                 style="fill:url(#SVGID_1_)"
                 d="m 7276.4,7288.2 v 0 c -2.1,0 -90.6,-0.2 -117,-0.2 -27.8,0 -29.5,0.2 -29.5,-8.8 0,-10.9 2.3,-11.1 29.5,-11.1 26.5,0 115,0 117.1,0 3.8,0 6.9,-4.1 6.9,-8.5 0,-2.4 -0.2,-150.3 -0.2,-150.7 -0.3,-4.3 -3.3,-8 -7.1,-8 h -152.7 c -3.8,0 -6.8,3.7 -7.2,8 0,0.1 0.1,0.5 0.1,0.6 V 7258 c 0,0 0,24.4 0,25.1 0,0 0,0 0,0 0,15.4 -0.2,15.4 43.2,15.4 26.4,0 115,0 117,0 3.8,0 6.9,-0.2 6.9,-2.7 0,-4.4 -3.2,-7.6 -7,-7.6 z"
                 id="path3833" />
              <linearGradient
                 id="SVGID_2_"
                 gradientUnits="userSpaceOnUse"
                 x1="7212.2295"
                 y1="7271.1914"
                 x2="7212.2295"
                 y2="7285.9873">
                <stop
                   offset="0"
                   style="stop-color:#E1E1E1"
                   id="stop3835" />
                <stop
                   offset="1"
                   style="stop-color:#969696"
                   id="stop3837" />
              </linearGradient>
              <path
                 inkscape:connector-curvature="0"
                 style="fill:url(#SVGID_2_)"
                 d="m 7277.9,7274.6 h -131.3 c -0.9,0 -1.7,-0.7 -1.7,-1.2 0,-0.6 0.8,-1.2 1.7,-1.2 h 131.3 c 0.9,0 1.7,0.7 1.7,1.2 0,0.5 -0.8,1.2 -1.7,1.2 z"
                 id="path3840" />
              <linearGradient
                 id="SVGID_3_"
                 gradientUnits="userSpaceOnUse"
                 x1="7207.8315"
                 y1="7271.1914"
                 x2="7207.8315"
                 y2="7285.9873">
                <stop
                   offset="0"
                   style="stop-color:#E1E1E1"
                   id="stop3842" />
                <stop
                   offset="1"
                   style="stop-color:#969696"
                   id="stop3844" />
              </linearGradient>
              <path
                 inkscape:connector-curvature="0"
                 style="fill:url(#SVGID_3_)"
                 d="m 7277.9,7279.9 h -140.1 c -0.9,0 -1.7,-0.4 -1.7,-1.2 0,-0.8 0.8,-1.2 1.7,-1.2 h 140.1 c 0.9,0 1.7,0.4 1.7,1.2 0,0.8 -0.8,1.2 -1.7,1.2 z"
                 id="path3847" />
              <linearGradient
                 id="SVGID_4_"
                 gradientUnits="userSpaceOnUse"
                 x1="7212.2295"
                 y1="7271.1914"
                 x2="7212.2295"
                 y2="7285.9873">
                <stop
                   offset="0"
                   style="stop-color:#E1E1E1"
                   id="stop3849" />
                <stop
                   offset="1"
                   style="stop-color:#969696"
                   id="stop3851" />
              </linearGradient>
              <path
                 inkscape:connector-curvature="0"
                 style="fill:url(#SVGID_4_)"
                 d="m 7277.9,7285.3 h -131.3 c -0.9,0 -1.7,-0.7 -1.7,-1.2 0,-0.6 0.8,-1.2 1.7,-1.2 h 131.3 c 0.9,0 1.7,0.7 1.7,1.2 0,0.6 -0.8,1.2 -1.7,1.2 z"
                 id="path3854" />
            </g>
          </g>
        </g>
      </g>
      <g
         id="Calque_1">
        <path
           style="fill:#ffffff"
           inkscape:connector-curvature="0"
           d="m 7276,7184.4 c 0,42 -34.1,76.1 -76.1,76.1 -42,0 -76.1,-34 -76.1,-76.1 0,-42 34.1,-76.1 76.1,-76.1 42,0 76.1,34.1 76.1,76.1 z"
           id="path3863" />
        <g
           id="g3879">
          <g
             style="opacity:0.25"
             id="g3869">
            <path
               inkscape:connector-curvature="0"
               d="m 7198.6,7182.9 c 0.6,-0.6 1.4,-0.9 2.3,-0.9 1.9,0 3.4,1.5 3.4,3.4 v 0 h 2.9 v 0 0 c 0,-0.1 0,-0.2 0,-0.2 -0.1,-1.6 -0.7,-3.1 -1.8,-4.2 -0.3,-0.3 -0.6,-0.5 -0.9,-0.7 0,0 0,0 0,0 0,0 0,0 0,0 v 0 c 0,0 0,0 0,0 l -1.8,-20.4 -1.8,-20.4 v 0 0 l -1.8,20.1 -1.8,20.8 c 0,0 0,0 0,0 v 0 c 0,0 0,0 0,0 -1.6,1.1 -2.7,3 -2.7,5.2 v 0 h 2.9 c 0,-1.2 0.4,-2.1 1.1,-2.7 z"
               id="path3865" />
            <path
               inkscape:connector-curvature="0"
               d="m 7204.3,7185.4 c 0,1 -0.4,1.9 -1.1,2.5 -0.6,0.6 -1.4,0.9 -2.3,0.9 -1.9,0 -3.4,-1.5 -3.4,-3.4 v 0 h -2.9 v 0 c 0,0.1 0,0.2 0,0.2 0.1,1.6 0.7,3.1 1.8,4.2 0.3,0.3 0.6,0.5 0.9,0.7 0,0 0,0 0,0 0,0 0,0 0,0 v 0 c 0,0 0,0 0,0 l 1.8,20.8 1.8,20.1 v 0 0 l 1.8,-20.4 1.8,-20.4 c 0,0 0,0 0,0 v 0 c 0,0 0,0 0,0 1.6,-1.1 2.7,-3 2.7,-5.2 v 0 z"
               id="path3867" />
          </g>
          <g
             id="g3877">
            <g
               id="g3875">
              <path
                 style="fill:#dd0000"
                 inkscape:connector-curvature="0"
                 d="m 7197.6,7181.9 c 0.6,-0.6 1.4,-0.9 2.3,-0.9 1.9,0 3.4,1.5 3.4,3.4 v 0 h 2.9 v 0 0 c 0,-0.1 0,-0.2 0,-0.2 -0.1,-1.6 -0.7,-3.1 -1.8,-4.2 -0.3,-0.3 -0.6,-0.5 -0.9,-0.7 0,0 0,0 0,0 0,0 0,0 0,0 v 0 c 0,0 0,0 0,0 l -1.8,-20.4 -1.8,-20.4 v 0 0 l -1.8,20.1 -1.8,20.8 c 0,0 0,0 0,0 v 0 c 0,0 0,0 0,0 -1.6,1.1 -2.7,3 -2.7,5.2 v 0 h 2.9 c 0,-1.2 0.4,-2.1 1.1,-2.7 z"
                 id="path3871" />
              <path
                 style="fill:#404040"
                 inkscape:connector-curvature="0"
                 d="m 7203.3,7184.4 c 0,1 -0.4,1.9 -1.1,2.5 -0.6,0.6 -1.4,0.9 -2.3,0.9 -1.9,0 -3.4,-1.5 -3.4,-3.4 v 0 h -2.9 v 0 c 0,0.1 0,0.2 0,0.2 0.1,1.6 0.7,3.1 1.8,4.2 0.3,0.3 0.6,0.5 0.9,0.7 0,0 0,0 0,0 0,0 0,0 0,0 v 0 c 0,0 0,0 0,0 l 1.8,20.8 1.8,20.1 v 0 0 l 1.8,-20.4 1.8,-20.4 c 0,0 0,0 0,0 v 0 c 0,0 0,0 0,0 1.6,-1.1 2.7,-3 2.7,-5.2 v 0 z"
                 id="path3873" />
            </g>
          </g>
        </g>
        <g
           id="g3900">
          <g
             style="opacity:0.25"
             id="g3885">
            <path
               style="fill:none;stroke:#000000;stroke-width:6;stroke-miterlimit:10"
               inkscape:connector-curvature="0"
               stroke-miterlimit="10"
               d="m 7277,7185.4 c 0,42 -34.1,76.1 -76.1,76.1 -42,0 -76.1,-34 -76.1,-76.1 0,-42 34.1,-76.1 76.1,-76.1 42,0 76.1,34.1 76.1,76.1 z"
               id="path3881" />
            <path
               style="fill:none;stroke:#000000;stroke-width:4;stroke-miterlimit:10"
               inkscape:connector-curvature="0"
               stroke-miterlimit="10"
               d="m 7277,7185.4 c 0,42 -34.1,76.1 -76.1,76.1 -42,0 -76.1,-34 -76.1,-76.1 0,-42 34.1,-76.1 76.1,-76.1 42,0 76.1,34.1 76.1,76.1 z"
               id="path3883" />
          </g>
          <g
             id="g3898">
            <g
               id="g3896">
              <path
                 style="fill:none;stroke:#a57b13;stroke-width:6;stroke-miterlimit:10"
                 inkscape:connector-curvature="0"
                 stroke-miterlimit="10"
                 d="m 7276,7184.4 c 0,42 -34.1,76.1 -76.1,76.1 -42,0 -76.1,-34 -76.1,-76.1 0,-42 34.1,-76.1 76.1,-76.1 42,0 76.1,34.1 76.1,76.1 z"
                 id="path3887" />
              <linearGradient
                 id="SVGID_5_"
                 gradientUnits="userSpaceOnUse"
                 x1="7132.291"
                 y1="7145.3501"
                 x2="7267.5278"
                 y2="7223.4292">
                <stop
                   offset="0"
                   style="stop-color:#FEBD3E"
                   id="stop3889" />
                <stop
                   offset="1"
                   style="stop-color:#C58B00"
                   id="stop3891" />
              </linearGradient>
              <path
                 inkscape:connector-curvature="0"
                 style="fill:none;stroke:url(#SVGID_5_);stroke-width:4;stroke-miterlimit:10"
                 stroke-miterlimit="10"
                 d="m 7276,7184.4 c 0,42 -34.1,76.1 -76.1,76.1 -42,0 -76.1,-34 -76.1,-76.1 0,-42 34.1,-76.1 76.1,-76.1 42,0 76.1,34.1 76.1,76.1 z"
                 id="path3894" />
            </g>
          </g>
        </g>
        <g
           id="g3912">
          <text
             style="font-size:33px;font-family:MinionPro-Bold"
             transform="translate(7249.5117,7189.356)"
             font-size="33px"
             id="text3902">E</text>
          <text
             style="font-size:33px;font-family:MinionPro-Bold"
             transform="translate(7131.916,7189.356)"
             font-size="33px"
             id="text3904">W</text>
          <g
             id="g3910">
            <text
               style="font-size:33px;font-family:MinionPro-Bold"
               transform="translate(7188.2461,7138.2085)"
               font-size="33px"
               id="text3906">N</text>
            <text
               style="font-size:33px;font-family:MinionPro-Bold"
               transform="translate(7192.458,7253.3848)"
               font-size="33px"
               id="text3908">S</text>
          </g>
        </g>
      </g>
    </g>
  </g>
</svg>
